HIERARCHY
ROOT Hips
{
	OFFSET 0.000000 0.000000 0.000000
	CHANNELS 6 Xposition Yposition Zposition Zrotation Yrotation Xrotation 
	JOINT LHipJoint
	{
		OFFSET 0.000000 0.000000 0.000000
		CHANNELS 3 Zrotation Yrotation Xrotation
		JOINT LeftUpLeg
		{
			OFFSET 1.363060 -1.794630 0.839290
			CHANNELS 3 Zrotation Yrotation Xrotation
			JOINT LeftLeg
			{
				OFFSET 2.448110 -6.726130 0.000000
				CHANNELS 3 Zrotation Yrotation Xrotation
				JOINT LeftFoot
				{
					OFFSET 2.562200 -7.039590 0.000000
					CHANNELS 3 Zrotation Yrotation Xrotation
					JOINT LeftToeBase
					{
						OFFSET 0.157640 -0.433110 2.322550
						CHANNELS 3 Zrotation Yrotation Xrotation
						End Site
						{
							OFFSET 0.000000 0.000000 0.000000
						}
					}
				}
			}
		}
	}
	JOINT RHipJoint
	{
		OFFSET 0.000000 0.000000 0.000000
		CHANNELS 3 Zrotation Yrotation Xrotation
		JOINT RightUpLeg
		{
			OFFSET -1.305520 -1.794630 0.839290
			CHANNELS 3 Zrotation Yrotation Xrotation
			JOINT RightLeg
			{
				OFFSET -2.542530 -6.985550 0.000000
				CHANNELS 3 Zrotation Yrotation Xrotation
				JOINT RightFoot
				{
					OFFSET -2.568260 -7.056230 0.000000
					CHANNELS 3 Zrotation Yrotation Xrotation
					JOINT RightToeBase
					{
						OFFSET -0.164730 -0.452590 2.363150
						CHANNELS 3 Zrotation Yrotation Xrotation
						End Site
						{
							OFFSET 0.000000 0.000000 0.000000
						}
					}
				}
			}
		}
	}
	JOINT LowerBack
	{
		OFFSET 0.000000 0.000000 0.000000
		CHANNELS 3 Zrotation Yrotation Xrotation
		JOINT Spine
		{
			OFFSET 0.028270 2.035590 -0.193380
			CHANNELS 3 Zrotation Yrotation Xrotation
			JOINT Spine1
			{
				OFFSET 0.056720 2.048850 -0.042750
				CHANNELS 3 Zrotation Yrotation Xrotation
				JOINT Neck
				{
					OFFSET 0.000000 0.000000 0.000000
					CHANNELS 3 Zrotation Yrotation Xrotation
					JOINT Neck1
					{
						OFFSET -0.054170 1.746240 0.172020
						CHANNELS 3 Zrotation Yrotation Xrotation
						JOINT Head
						{
							OFFSET 0.104070 1.761360 -0.123970
							CHANNELS 3 Zrotation Yrotation Xrotation
							End Site
							{
								OFFSET 0.000000 0.000000 0.000000
							}
						}
					}
				}
				JOINT LeftShoulder
				{
					OFFSET 0.000000 0.000000 0.000000
					CHANNELS 3 Zrotation Yrotation Xrotation
					JOINT LeftArm
					{
						OFFSET 3.362410 1.200890 -0.311210
						CHANNELS 3 Zrotation Yrotation Xrotation
						JOINT LeftForeArm
						{
							OFFSET 4.983000 -0.000000 -0.000000
							CHANNELS 3 Zrotation Yrotation Xrotation
							JOINT LeftHand
							{
								OFFSET 3.483560 -0.000000 -0.000000
								CHANNELS 3 Zrotation Yrotation Xrotation
								JOINT LeftFingerBase
								{
									OFFSET 0.000000 0.000000 0.000000
									CHANNELS 3 Zrotation Yrotation Xrotation
									JOINT LeftHandIndex1
									{
										OFFSET 0.715260 -0.000000 -0.000000
										CHANNELS 3 Zrotation Yrotation Xrotation
										End Site
										{
											OFFSET 0.000000 0.000000 0.000000
										}
									}
								}
								JOINT LThumb
								{
									OFFSET 0.000000 0.000000 0.000000
									CHANNELS 3 Zrotation Yrotation Xrotation
									End Site
									{
										OFFSET 0.000000 0.000000 0.000000
									}
								}
							}
						}
					}
				}
				JOINT RightShoulder
				{
					OFFSET 0.000000 0.000000 0.000000
					CHANNELS 3 Zrotation Yrotation Xrotation
					JOINT RightArm
					{
						OFFSET -3.136600 1.374050 -0.404650
						CHANNELS 3 Zrotation Yrotation Xrotation
						JOINT RightForeArm
						{
							OFFSET -5.241900 -0.000000 -0.000000
							CHANNELS 3 Zrotation Yrotation Xrotation
							JOINT RightHand
							{
								OFFSET -3.444170 -0.000000 -0.000000
								CHANNELS 3 Zrotation Yrotation Xrotation
								JOINT RightFingerBase
								{
									OFFSET 0.000000 0.000000 0.000000
									CHANNELS 3 Zrotation Yrotation Xrotation
									JOINT RightHandIndex1
									{
										OFFSET -0.622530 -0.000000 -0.000000
										CHANNELS 3 Zrotation Yrotation Xrotation
										End Site
										{
											OFFSET 0.000000 0.000000 0.000000
										}
									}
								}
								JOINT RThumb
								{
									OFFSET 0.000000 0.000000 0.000000
									CHANNELS 3 Zrotation Yrotation Xrotation
									End Site
									{
										OFFSET 0.000000 0.000000 0.000000
									}
								}
							}
						}
					}
				}
			}
		}
	}
}
MOTION
Frames: 10
Frame Time: 0.008333
0.833067 17.141502 3.350302 1.260986 40.104118 26.983746 -6.531024 -0.920132 2.604466 -5.200670 -16.428667 -44.651645 -2.914614 -1.374927 5.921939 -0.449557 -3.998646 -1.906000 -0.131199 0.000000 -37.527900 8.899475 -0.461350 -0.710693 18.832578 12.462342 -11.389445 3.402868 -0.219691 17.254420 1.182658 11.569375 -9.027690 179.843700 0.000000 -34.062000 -0.245518 1.779041 4.125451 -1.130916 1.810860 -2.117739 -6.419003 1.718248 0.355483 13.086374 5.766919 4.148053 -4.022865 -0.388893 2.717297 0.000000 0.000000 0.000000 -5.466171 1.876023 1.929894 -57.969398 -2.240429 8.619591 -3.635637 -25.803096 0.001120 2.745387 -0.012654 0.000181 -0.126915 -0.002753 0.000000 0.000000 0.000000 0.000000 0.000000 0.000000 0.000000 20.701240 6.630520 -1.291732 82.245057 26.612203 27.192875 2.064869 32.979379 0.006093 2.643624 10.219924 0.243813 -0.023188 -0.207077 0.000000 0.000000 0.000000 0.000000 0.000000 0.000000 0.000000 
0.895799 17.104275 3.456839 0.709043 39.270461 26.477352 -6.605656 -0.947677 2.635361 -4.641415 -16.353067 -44.634051 -2.820375 -1.319104 6.262080 -0.442521 -3.952336 -1.776414 -0.133600 0.000000 -38.249200 8.877391 -0.564098 -0.777669 19.326375 12.153210 -10.775752 3.481239 -0.271242 17.582596 1.251684 12.193259 -9.053911 179.811200 0.000000 -34.928900 -0.276329 1.864465 4.127936 -1.153049 1.895564 -2.125484 -6.502345 1.799721 0.353875 13.198529 5.920199 4.050892 -4.033142 -0.388691 2.690989 0.000000 0.000000 0.000000 -5.400238 2.065326 1.908104 -57.852773 -2.573253 8.728516 -3.651505 -25.474251 0.000970 2.738389 0.065319 0.002178 -0.127312 -0.003384 0.000000 0.000000 0.000000 0.000000 0.000000 0.000000 0.000000 20.825989 6.795682 -1.197641 81.887769 25.891194 25.336100 2.116710 31.567116 0.005863 2.551140 10.158083 0.233613 -0.020798 -0.199104 0.000000 0.000000 0.000000 0.000000 0.000000 0.000000 0.000000 
0.957696 17.065295 3.567459 0.195050 38.377859 25.989990 -6.693296 -0.963579 2.634221 -4.166086 -16.127152 -44.580247 -2.732554 -1.234354 6.729718 -0.450506 -3.954162 -1.383539 -0.149601 0.000000 -39.065299 8.880495 -0.671195 -0.837460 19.759799 11.817773 -10.187029 3.548717 -0.334917 18.007078 1.314451 12.804307 -9.123604 179.768600 0.000000 -35.711200 -0.367985 1.952907 4.129606 -1.189323 1.985986 -2.134890 -6.594299 1.886697 0.350970 13.343226 6.100376 3.960805 -4.048669 -0.388850 2.665744 0.000000 0.000000 0.000000 -5.317221 2.274673 1.888403 -57.718824 -2.928997 8.825878 -3.671330 -25.114942 0.000803 2.734110 0.149516 0.004274 -0.127791 -0.003992 0.000000 0.000000 0.000000 0.000000 0.000000 0.000000 0.000000 21.007431 6.991022 -1.102339 81.506216 25.148222 23.333992 2.163192 30.139905 0.005566 2.437019 10.094359 0.221511 -0.018550 -0.191415 -0.000000 0.000000 0.000000 0.000000 0.000000 0.000000 0.000000 
1.018819 17.025251 3.682394 -0.252930 37.446622 25.543149 -6.787708 -0.962282 2.607654 -3.809402 -15.773938 -44.512167 -2.654513 -1.123051 7.335876 -0.471997 -4.008450 -0.752566 -0.180901 0.000000 -39.872300 8.916693 -0.781806 -0.896361 20.105857 11.407649 -9.650629 3.601586 -0.411352 18.547211 1.369080 13.390448 -9.246149 179.713000 -0.000001 -36.313700 -0.530520 2.035006 4.125486 -1.241544 2.073042 -2.146195 -6.695496 1.970257 0.349932 13.526601 6.302923 3.877525 -4.071184 -0.389417 2.641419 0.000000 0.000000 0.000000 -5.226053 2.508229 1.871696 -57.555700 -3.315800 8.913827 -3.696493 -24.723538 0.000618 2.732608 0.239777 0.006570 -0.128391 -0.004536 0.000000 0.000000 0.000000 0.000000 0.000000 0.000000 0.000000 21.259277 7.204811 -1.007939 81.093637 24.385958 21.190536 2.202162 28.715022 0.005206 2.310881 10.018378 0.208206 -0.016626 -0.183884 -0.000000 0.000000 0.000000 0.000000 0.000000 0.000000 0.000000 
1.078605 16.984930 3.801952 -0.603474 36.497115 25.151517 -6.879505 -0.938928 2.561707 -3.603966 -15.324322 -44.441541 -2.589296 -0.989508 8.087970 -0.503126 -4.111153 0.061340 -0.228499 -0.000000 -40.545500 8.997169 -0.894827 -0.965743 20.332830 10.857465 -9.193727 3.635767 -0.502555 19.231205 1.414487 13.947102 -9.430330 179.641100 0.000000 -36.793200 -0.781338 2.101257 4.117123 -1.312678 2.147965 -2.158754 -6.804247 2.041751 0.351180 13.749259 6.512728 3.802530 -4.100343 -0.390372 2.618382 0.000000 0.000000 0.000000 -5.128157 2.741352 1.857841 -57.354343 -3.710161 8.986554 -3.726386 -24.311734 0.000432 2.745417 0.329357 0.008866 -0.129082 -0.005061 0.000000 0.000000 0.000000 0.000000 0.000000 0.000000 0.000000 21.581012 7.413651 -0.915538 80.663898 23.627149 18.952591 2.231742 27.263722 0.004742 2.142928 9.960639 0.191800 -0.014725 -0.176611 -0.000000 0.000000 0.000000 0.000000 0.000000 0.000000 0.000000 
1.136150 16.945301 3.926532 -0.828451 35.539500 24.833913 -6.957514 -0.889824 2.503039 -3.577145 -14.805093 -44.386238 -2.540316 -0.840335 8.984341 -0.538930 -4.249042 0.983692 -0.291000 -0.000000 -40.956300 9.134272 -1.009145 -1.050844 20.401014 10.126770 -8.857020 3.645185 -0.611768 20.094793 1.450305 14.469242 -9.666853 179.552400 -0.000000 -37.058601 -1.143337 2.145567 4.100460 -1.407139 2.205483 -2.173876 -6.919170 2.095906 0.352360 14.013687 6.729373 3.740999 -4.135332 -0.391721 2.597934 0.000000 0.000000 0.000000 -5.021623 2.950850 1.847870 -57.103296 -4.088440 9.038226 -3.761094 -23.892622 0.000249 2.777048 0.417525 0.011163 -0.129852 -0.005599 0.000000 0.000000 0.000000 0.000000 0.000000 0.000000 0.000000 21.972245 7.612944 -0.826015 80.226076 22.871722 16.613942 2.248903 25.792599 0.004161 1.929159 9.920650 0.171891 -0.012949 -0.169590 -0.000000 0.000000 0.000000 0.000000 0.000000 0.000000 0.000000 
1.190994 16.907466 4.055827 -0.928108 34.583890 24.596582 -7.014945 -0.815727 2.436441 -3.725684 -14.236553 -44.369174 -2.507241 -0.681587 10.024601 -0.574672 -4.408135 1.920669 -0.364400 0.000001 -41.002000 9.328445 -1.123857 -1.149430 20.301212 9.225561 -8.665306 3.625506 -0.739270 21.143189 1.475051 14.924437 -9.917821 179.455300 -0.000000 -36.902100 -1.615165 2.165501 4.072357 -1.524663 2.243005 -2.189927 -7.039920 2.130434 0.361209 14.316903 6.942356 3.686223 -4.176239 -0.393349 2.578002 0.000000 0.000000 0.000000 -4.914805 3.168566 1.841180 -56.795655 -4.509683 9.087506 -3.803054 -23.434616 0.000062 2.819306 0.504138 0.013559 -0.130794 -0.005992 0.000000 0.000000 0.000000 0.000000 0.000000 0.000000 0.000000 22.430310 7.790527 -0.743846 79.780494 22.128307 14.168285 2.252251 24.337289 0.003482 1.682591 9.870145 0.149080 -0.011479 -0.162586 -0.000000 0.000000 0.000000 0.000000 0.000000 0.000000 0.000000 
1.242362 16.872574 4.189046 -0.898150 33.637731 24.436170 -7.045292 -0.718133 2.366249 -4.041561 -13.651107 -44.387482 -2.489037 -0.519622 11.194672 -0.604712 -4.556816 2.777220 -0.438600 0.000001 -40.628100 9.581920 -1.237591 -1.266660 20.020961 8.139952 -8.638274 3.572938 -0.887610 22.393831 1.490430 15.307113 -10.132919 179.360700 -0.000000 -36.178700 -2.195534 2.159636 4.039852 -1.664009 2.259211 -2.207002 -7.161092 2.143821 0.369737 14.643064 7.150003 3.647267 -4.218924 -0.395136 2.561220 0.000000 0.000000 0.000000 -4.813903 3.335201 1.838720 -56.430768 -4.910681 9.105863 -3.849113 -22.971214 -0.000126 2.876796 0.589207 0.016056 -0.131704 -0.006328 0.000000 0.000000 0.000000 0.000000 0.000000 0.000000 0.000000 22.920013 7.942259 -0.667045 79.344880 21.405198 11.631842 2.240184 22.888753 0.002682 1.373095 9.830296 0.121266 -0.010047 -0.155726 -0.000000 0.000000 0.000000 0.000000 0.000000 0.000000 0.000000 
1.289795 16.841627 4.325248 -0.735936 32.704743 24.350215 -7.042084 -0.599071 2.298138 -4.507094 -13.092952 -44.426900 -2.483920 -0.361620 12.461183 -0.623141 -4.647558 3.470510 -0.497800 -0.000000 -39.843899 9.896727 -1.347776 -1.408438 19.547397 6.858259 -8.798129 3.484009 -1.059591 23.865406 1.500136 15.629588 -10.246311 179.282899 0.000000 -34.698500 -2.882816 2.127205 4.012213 -1.824296 2.253398 -2.221163 -7.278623 2.135696 0.383582 14.975444 7.338307 3.617686 -4.260790 -0.396835 2.545649 0.000000 0.000000 0.000000 -4.727016 3.467711 1.839505 -56.009443 -5.335958 9.112395 -3.899960 -22.477136 -0.000312 2.947707 0.669758 0.018653 -0.132594 -0.006483 0.000000 0.000000 0.000000 0.000000 0.000000 0.000000 0.000000 23.413552 8.053526 -0.599226 78.930732 20.722497 9.040753 2.211854 21.461597 0.001766 0.982356 9.799564 0.086651 -0.008468 -0.148949 -0.000000 0.000000 0.000000 0.000000 0.000000 0.000000 0.000000 
1.333062 16.815418 4.463216 -0.446031 31.785736 24.333312 -7.001909 -0.461783 2.237262 -5.096328 -12.603535 -44.465624 -2.489678 -0.214032 13.781204 -0.625071 -4.632958 3.937400 -0.524700 -0.000000 -38.730500 10.270839 -1.451514 -1.577165 18.876637 5.387954 -9.158326 3.354875 -1.257326 25.565626 1.508218 15.904679 -10.163557 179.244000 0.000000 -32.053900 -3.667389 2.069836 3.997636 -2.002931 2.226816 -2.229769 -7.387519 2.107520 0.404189 15.292093 7.496425 3.594826 -4.298605 -0.398231 2.530631 0.000000 0.000000 0.000000 -4.662822 3.560153 1.842863 -55.537095 -5.796926 9.109837 -3.954797 -21.945637 -0.000502 3.027518 0.746248 0.021250 -0.133385 -0.006400 0.000000 0.000000 0.000000 0.000000 0.000000 0.000000 0.000000 23.874675 8.113749 -0.541734 78.547822 20.093644 6.442935 2.167301 20.073058 0.000749 0.489793 9.781226 0.043434 -0.006521 -0.142280 -0.000000 0.000000 0.000000 0.000000 0.000000 0.000000 0.000000 
